<svg xmlns="http://www.w3.org/2000/svg" xmlns:xlink="http://www.w3.org/1999/xlink" contentStyleType="text/css" data-diagram-type="SEQUENCE" height="1510px" preserveAspectRatio="none" style="width:862px;height:1510px;background:#FFFFFF;" version="1.1" viewBox="0 0 862 1510" width="862px" zoomAndPan="magnify"><title>&#1044;&#1080;&#1072;&#1075;&#1088;&#1072;&#1084;&#1084;&#1072; &#1087;&#1086;&#1089;&#1083;&#1077;&#1076;&#1086;&#1074;&#1072;&#1090;&#1077;&#1083;&#1100;&#1085;&#1086;&#1089;&#1090;&#1080;: &#1059;&#1087;&#1088;&#1072;&#1074;&#1083;&#1077;&#1085;&#1080;&#1077; &#1087;&#1086;&#1083;&#1100;&#1079;&#1086;&#1074;&#1072;&#1090;&#1077;&#1083;&#1103;&#1084;&#1080;</title><defs/><g><text fill="#000000" font-family="sans-serif" font-size="14" font-weight="bold" lengthAdjust="spacing" textLength="509.9473" x="172.2798" y="27.9951">&#1044;&#1080;&#1072;&#1075;&#1088;&#1072;&#1084;&#1084;&#1072; &#1087;&#1086;&#1089;&#1083;&#1077;&#1076;&#1086;&#1074;&#1072;&#1090;&#1077;&#1083;&#1100;&#1085;&#1086;&#1089;&#1090;&#1080;: &#1059;&#1087;&#1088;&#1072;&#1074;&#1083;&#1077;&#1085;&#1080;&#1077; &#1087;&#1086;&#1083;&#1100;&#1079;&#1086;&#1074;&#1072;&#1090;&#1077;&#1083;&#1103;&#1084;&#1080;</text><g><title>.User</title><rect fill="#FFFFFF" height="113.3984" style="stroke:#181818;stroke-width:1;" width="10" x="291.0654" y="192.8594"/></g><g><title>.User</title><rect fill="#FFFFFF" height="29.1328" style="stroke:#181818;stroke-width:1;" width="10" x="461.375" y="378.5234"/></g><g><title>.User</title><rect fill="#FFFFFF" height="87.3984" style="stroke:#181818;stroke-width:1;" width="10" x="461.375" y="479.9219"/></g><g><title>.User</title><rect fill="#FFFFFF" height="145.6641" style="stroke:#181818;stroke-width:1;" width="10" x="461.375" y="663.7188"/></g><g><title>.User</title><rect fill="#FFFFFF" height="145.6641" style="stroke:#181818;stroke-width:1;" width="10" x="461.375" y="853.3203"/></g><g><title>.User</title><rect fill="#FFFFFF" height="145.6641" style="stroke:#181818;stroke-width:1;" width="10" x="461.375" y="1042.9219"/></g><g><title>.User</title><rect fill="#FFFFFF" height="34.1328" style="stroke:#181818;stroke-width:1;" width="10" x="461.375" y="1377.25"/></g><g><title>.IState</title><rect fill="#FFFFFF" height="29.1328" style="stroke:#181818;stroke-width:1;" width="10" x="685.5845" y="509.0547"/></g><g><title>.IState</title><rect fill="#FFFFFF" height="29.1328" style="stroke:#181818;stroke-width:1;" width="10" x="685.5845" y="692.8516"/></g><g><title>.IState</title><rect fill="#FFFFFF" height="29.1328" style="stroke:#181818;stroke-width:1;" width="10" x="685.5845" y="751.1172"/></g><g><title>.IState</title><rect fill="#FFFFFF" height="29.1328" style="stroke:#181818;stroke-width:1;" width="10" x="685.5845" y="882.4531"/></g><g><title>.IState</title><rect fill="#FFFFFF" height="29.1328" style="stroke:#181818;stroke-width:1;" width="10" x="685.5845" y="940.7188"/></g><g><title>.IState</title><rect fill="#FFFFFF" height="29.1328" style="stroke:#181818;stroke-width:1;" width="10" x="685.5845" y="1072.0547"/></g><g><title>.IState</title><rect fill="#FFFFFF" height="29.1328" style="stroke:#181818;stroke-width:1;" width="10" x="685.5845" y="1130.3203"/></g><g><title>.UserActionLog</title><rect fill="#FFFFFF" height="29.1328" style="stroke:#181818;stroke-width:1;" width="10" x="785.5215" y="1267.8516"/></g><rect fill="none" height="571.1328" style="stroke:#000000;stroke-width:1.5;" width="720.5361" x="10" y="625.4531"/><g><title>.............</title><rect fill="#000000" fill-opacity="0.00000" height="1310.7891" width="8" x="77.0474" y="118.5938"/><line style="stroke:#181818;stroke-width:0.5;stroke-dasharray:5,5;" x1="81" x2="81" y1="118.5938" y2="1429.3828"/></g><g><title>.User</title><rect fill="#000000" fill-opacity="0.00000" height="1310.7891" width="8" x="292.0654" y="118.5938"/><line style="stroke:#181818;stroke-width:0.5;stroke-dasharray:5,5;" x1="295.6704" x2="295.6704" y1="118.5938" y2="1429.3828"/></g><g><title>.User</title><rect fill="#000000" fill-opacity="0.00000" height="1310.7891" width="8" x="462.375" y="118.5938"/><line style="stroke:#181818;stroke-width:0.5;stroke-dasharray:5,5;" x1="465.5063" x2="465.5063" y1="118.5938" y2="1429.3828"/></g><g><title>.IState</title><rect fill="#000000" fill-opacity="0.00000" height="1310.7891" width="8" x="686.5845" y="118.5938"/><line style="stroke:#181818;stroke-width:0.5;stroke-dasharray:5,5;" x1="689.6328" x2="689.6328" y1="118.5938" y2="1429.3828"/></g><g><title>.UserActionLog</title><rect fill="#000000" fill-opacity="0.00000" height="1310.7891" width="8" x="786.5215" y="118.5938"/><line style="stroke:#181818;stroke-width:0.5;stroke-dasharray:5,5;" x1="789.5361" x2="789.5361" y1="118.5938" y2="1429.3828"/></g><g class="participant participant-head" data-participant="Admin"><text fill="#000000" font-family="sans-serif" font-size="14" lengthAdjust="spacing" textLength="116.0947" x="20" y="115.292">&#1040;&#1076;&#1084;&#1080;&#1085;&#1080;&#1089;&#1090;&#1088;&#1072;&#1090;&#1086;&#1088;</text><ellipse cx="81.0474" cy="50.7969" fill="#E2E2F0" rx="8" ry="8" style="stroke:#181818;stroke-width:0.5;"/><path d="M81.0474,58.7969 L81.0474,85.7969 M68.0474,66.7969 L94.0474,66.7969 M81.0474,85.7969 L68.0474,100.7969 M81.0474,85.7969 L94.0474,100.7969" fill="none" style="stroke:#181818;stroke-width:0.5;"/></g><g class="participant participant-tail" data-participant="Admin"><text fill="#000000" font-family="sans-serif" font-size="14" lengthAdjust="spacing" textLength="116.0947" x="20" y="1441.3779">&#1040;&#1076;&#1084;&#1080;&#1085;&#1080;&#1089;&#1090;&#1088;&#1072;&#1090;&#1086;&#1088;</text><ellipse cx="81.0474" cy="1453.1797" fill="#E2E2F0" rx="8" ry="8" style="stroke:#181818;stroke-width:0.5;"/><path d="M81.0474,1461.1797 L81.0474,1488.1797 M68.0474,1469.1797 L94.0474,1469.1797 M81.0474,1488.1797 L68.0474,1503.1797 M81.0474,1488.1797 L94.0474,1503.1797" fill="none" style="stroke:#181818;stroke-width:0.5;"/></g><g class="participant participant-head" data-participant="AdminUser"><rect fill="#E2E2F0" height="46.5938" rx="2.5" ry="2.5" style="stroke:#181818;stroke-width:0.5;" width="68.79" x="261.6704" y="71"/><text fill="#000000" font-family="sans-serif" font-size="14" lengthAdjust="spacing" textLength="36.627" x="277.752" y="90.9951">:User</text><text fill="#000000" font-family="sans-serif" font-size="14" lengthAdjust="spacing" textLength="54.79" x="268.6704" y="107.292">(admin)</text></g><g class="participant participant-tail" data-participant="AdminUser"><rect fill="#E2E2F0" height="46.5938" rx="2.5" ry="2.5" style="stroke:#181818;stroke-width:0.5;" width="68.79" x="261.6704" y="1428.3828"/><text fill="#000000" font-family="sans-serif" font-size="14" lengthAdjust="spacing" textLength="36.627" x="277.752" y="1448.3779">:User</text><text fill="#000000" font-family="sans-serif" font-size="14" lengthAdjust="spacing" textLength="54.79" x="268.6704" y="1464.6748">(admin)</text></g><g class="participant participant-head" data-participant="TargetUser"><rect fill="#E2E2F0" height="46.5938" rx="2.5" ry="2.5" style="stroke:#181818;stroke-width:0.5;" width="67.7373" x="432.5063" y="71"/><text fill="#000000" font-family="sans-serif" font-size="14" lengthAdjust="spacing" textLength="36.627" x="448.0615" y="90.9951">:User</text><text fill="#000000" font-family="sans-serif" font-size="14" lengthAdjust="spacing" textLength="53.7373" x="439.5063" y="107.292">(target)</text></g><g class="participant participant-tail" data-participant="TargetUser"><rect fill="#E2E2F0" height="46.5938" rx="2.5" ry="2.5" style="stroke:#181818;stroke-width:0.5;" width="67.7373" x="432.5063" y="1428.3828"/><text fill="#000000" font-family="sans-serif" font-size="14" lengthAdjust="spacing" textLength="36.627" x="448.0615" y="1448.3779">:User</text><text fill="#000000" font-family="sans-serif" font-size="14" lengthAdjust="spacing" textLength="53.7373" x="439.5063" y="1464.6748">(target)</text></g><g class="participant participant-head" data-participant="State"><rect fill="#E2E2F0" height="30.2969" rx="2.5" ry="2.5" style="stroke:#181818;stroke-width:0.5;" width="59.9033" x="660.6328" y="87.2969"/><text fill="#000000" font-family="sans-serif" font-size="14" lengthAdjust="spacing" textLength="45.9033" x="667.6328" y="107.292">:IState</text></g><g class="participant participant-tail" data-participant="State"><rect fill="#E2E2F0" height="30.2969" rx="2.5" ry="2.5" style="stroke:#181818;stroke-width:0.5;" width="59.9033" x="660.6328" y="1428.3828"/><text fill="#000000" font-family="sans-serif" font-size="14" lengthAdjust="spacing" textLength="45.9033" x="667.6328" y="1448.3779">:IState</text></g><g class="participant participant-head" data-participant="Log"><rect fill="#E2E2F0" height="30.2969" rx="2.5" ry="2.5" style="stroke:#181818;stroke-width:0.5;" width="119.9707" x="730.5361" y="87.2969"/><text fill="#000000" font-family="sans-serif" font-size="14" lengthAdjust="spacing" textLength="105.9707" x="737.5361" y="107.292">:UserActionLog</text></g><g class="participant participant-tail" data-participant="Log"><rect fill="#E2E2F0" height="30.2969" rx="2.5" ry="2.5" style="stroke:#181818;stroke-width:0.5;" width="119.9707" x="730.5361" y="1428.3828"/><text fill="#000000" font-family="sans-serif" font-size="14" lengthAdjust="spacing" textLength="105.9707" x="737.5361" y="1448.3779">:UserActionLog</text></g><g><title>.User</title><rect fill="#FFFFFF" height="113.3984" style="stroke:#181818;stroke-width:1;" width="10" x="291.0654" y="192.8594"/></g><g><title>.User</title><rect fill="#FFFFFF" height="29.1328" style="stroke:#181818;stroke-width:1;" width="10" x="461.375" y="378.5234"/></g><g><title>.User</title><rect fill="#FFFFFF" height="87.3984" style="stroke:#181818;stroke-width:1;" width="10" x="461.375" y="479.9219"/></g><g><title>.User</title><rect fill="#FFFFFF" height="145.6641" style="stroke:#181818;stroke-width:1;" width="10" x="461.375" y="663.7188"/></g><g><title>.User</title><rect fill="#FFFFFF" height="145.6641" style="stroke:#181818;stroke-width:1;" width="10" x="461.375" y="853.3203"/></g><g><title>.User</title><rect fill="#FFFFFF" height="145.6641" style="stroke:#181818;stroke-width:1;" width="10" x="461.375" y="1042.9219"/></g><g><title>.User</title><rect fill="#FFFFFF" height="34.1328" style="stroke:#181818;stroke-width:1;" width="10" x="461.375" y="1377.25"/></g><g><title>.IState</title><rect fill="#FFFFFF" height="29.1328" style="stroke:#181818;stroke-width:1;" width="10" x="685.5845" y="509.0547"/></g><g><title>.IState</title><rect fill="#FFFFFF" height="29.1328" style="stroke:#181818;stroke-width:1;" width="10" x="685.5845" y="692.8516"/></g><g><title>.IState</title><rect fill="#FFFFFF" height="29.1328" style="stroke:#181818;stroke-width:1;" width="10" x="685.5845" y="751.1172"/></g><g><title>.IState</title><rect fill="#FFFFFF" height="29.1328" style="stroke:#181818;stroke-width:1;" width="10" x="685.5845" y="882.4531"/></g><g><title>.IState</title><rect fill="#FFFFFF" height="29.1328" style="stroke:#181818;stroke-width:1;" width="10" x="685.5845" y="940.7188"/></g><g><title>.IState</title><rect fill="#FFFFFF" height="29.1328" style="stroke:#181818;stroke-width:1;" width="10" x="685.5845" y="1072.0547"/></g><g><title>.IState</title><rect fill="#FFFFFF" height="29.1328" style="stroke:#181818;stroke-width:1;" width="10" x="685.5845" y="1130.3203"/></g><g><title>.UserActionLog</title><rect fill="#FFFFFF" height="29.1328" style="stroke:#181818;stroke-width:1;" width="10" x="785.5215" y="1267.8516"/></g><rect fill="#EEEEEE" height="3" style="stroke:#EEEEEE;stroke-width:1;" width="855.5068" x="0" y="149.1602"/><line style="stroke:#000000;stroke-width:1;" x1="0" x2="855.5068" y1="149.1602" y2="149.1602"/><line style="stroke:#000000;stroke-width:1;" x1="0" x2="855.5068" y1="152.1602" y2="152.1602"/><rect fill="#EEEEEE" height="23.1328" style="stroke:#000000;stroke-width:2;" width="244.5977" x="305.4546" y="138.5938"/><text fill="#000000" font-family="sans-serif" font-size="13" font-weight="bold" lengthAdjust="spacing" textLength="226.0718" x="311.4546" y="154.6606">&#1040;&#1074;&#1090;&#1086;&#1088;&#1080;&#1079;&#1072;&#1094;&#1080;&#1103; &#1072;&#1076;&#1084;&#1080;&#1085;&#1080;&#1089;&#1090;&#1088;&#1072;&#1090;&#1086;&#1088;&#1072;</text><g class="message" data-participant-1="Admin" data-participant-2="AdminUser"><polygon fill="#181818" points="279.0654,188.8594,289.0654,192.8594,279.0654,196.8594,283.0654,192.8594" style="stroke:#181818;stroke-width:1;"/><line style="stroke:#181818;stroke-width:1;" x1="81.0474" x2="285.0654" y1="192.8594" y2="192.8594"/><text fill="#000000" font-family="sans-serif" font-size="13" lengthAdjust="spacing" textLength="147.875" x="88.0474" y="187.7935">login(email, password)</text></g><g class="message" data-participant-1="AdminUser" data-participant-2="AdminUser"><line style="stroke:#181818;stroke-width:1;" x1="301.0654" x2="343.0654" y1="221.9922" y2="221.9922"/><line style="stroke:#181818;stroke-width:1;" x1="343.0654" x2="343.0654" y1="221.9922" y2="234.9922"/><line style="stroke:#181818;stroke-width:1;" x1="302.0654" x2="343.0654" y1="234.9922" y2="234.9922"/><polygon fill="#181818" points="312.0654,230.9922,302.0654,234.9922,312.0654,238.9922,308.0654,234.9922" style="stroke:#181818;stroke-width:1;"/><text fill="#000000" font-family="sans-serif" font-size="13" lengthAdjust="spacing" textLength="136.3096" x="308.0654" y="216.9263">validateCredentials()</text></g><g class="message" data-participant-1="AdminUser" data-participant-2="AdminUser"><line style="stroke:#181818;stroke-width:1;" x1="301.0654" x2="343.0654" y1="264.125" y2="264.125"/><line style="stroke:#181818;stroke-width:1;" x1="343.0654" x2="343.0654" y1="264.125" y2="277.125"/><line style="stroke:#181818;stroke-width:1;" x1="302.0654" x2="343.0654" y1="277.125" y2="277.125"/><polygon fill="#181818" points="312.0654,273.125,302.0654,277.125,312.0654,281.125,308.0654,277.125" style="stroke:#181818;stroke-width:1;"/><text fill="#000000" font-family="sans-serif" font-size="13" lengthAdjust="spacing" textLength="62.188" x="308.0654" y="259.0591">isAdmin()</text></g><path d="M392.188,251.4922 L392.188,276.4922 L580.188,276.4922 L580.188,261.4922 L570.188,251.4922 L392.188,251.4922" fill="#FEFFDD" style="stroke:#181818;stroke-width:0.5;"/><path d="M570.188,251.4922 L570.188,261.4922 L580.188,261.4922 L570.188,251.4922" fill="#FEFFDD" style="stroke:#181818;stroke-width:0.5;"/><text fill="#000000" font-family="sans-serif" font-size="13" lengthAdjust="spacing" textLength="167.9653" x="398.188" y="268.5591">&#1055;&#1088;&#1086;&#1074;&#1077;&#1088;&#1082;&#1072; &#1088;&#1086;&#1083;&#1080; &#1087;&#1086; userId</text><g class="message" data-participant-1="AdminUser" data-participant-2="Admin"><polygon fill="#181818" points="92.0474,302.2578,82.0474,306.2578,92.0474,310.2578,88.0474,306.2578" style="stroke:#181818;stroke-width:1;"/><line style="stroke:#181818;stroke-width:1;stroke-dasharray:2,2;" x1="86.0474" x2="295.0654" y1="306.2578" y2="306.2578"/><text fill="#000000" font-family="sans-serif" font-size="13" lengthAdjust="spacing" textLength="186.0181" x="98.0474" y="301.1919">loginSuccess (role = ADMIN)</text></g><rect fill="#EEEEEE" height="3" style="stroke:#EEEEEE;stroke-width:1;" width="855.5068" x="0" y="334.8242"/><line style="stroke:#000000;stroke-width:1;" x1="0" x2="855.5068" y1="334.8242" y2="334.8242"/><line style="stroke:#000000;stroke-width:1;" x1="0" x2="855.5068" y1="337.8242" y2="337.8242"/><rect fill="#EEEEEE" height="23.1328" style="stroke:#000000;stroke-width:2;" width="274.0698" x="290.7185" y="324.2578"/><text fill="#000000" font-family="sans-serif" font-size="13" font-weight="bold" lengthAdjust="spacing" textLength="255.5439" x="296.7185" y="340.3247">&#1055;&#1086;&#1083;&#1091;&#1095;&#1077;&#1085;&#1080;&#1077; &#1089;&#1087;&#1080;&#1089;&#1082;&#1072; &#1087;&#1086;&#1083;&#1100;&#1079;&#1086;&#1074;&#1072;&#1090;&#1077;&#1083;&#1077;&#1081;</text><g class="message" data-participant-1="Admin" data-participant-2="TargetUser"><polygon fill="#181818" points="449.375,374.5234,459.375,378.5234,449.375,382.5234,453.375,378.5234" style="stroke:#181818;stroke-width:1;"/><line style="stroke:#181818;stroke-width:1;" x1="81.0474" x2="455.375" y1="378.5234" y2="378.5234"/><text fill="#000000" font-family="sans-serif" font-size="13" lengthAdjust="spacing" textLength="84.0112" x="88.0474" y="373.4575">getAllUsers()</text></g><g class="message" data-participant-1="TargetUser" data-participant-2="Admin"><polygon fill="#181818" points="92.0474,403.6563,82.0474,407.6563,92.0474,411.6563,88.0474,407.6563" style="stroke:#181818;stroke-width:1;"/><line style="stroke:#181818;stroke-width:1;stroke-dasharray:2,2;" x1="86.0474" x2="465.375" y1="407.6563" y2="407.6563"/><text fill="#000000" font-family="sans-serif" font-size="13" lengthAdjust="spacing" textLength="74.1406" x="98.0474" y="402.5903">List&lt;User&gt;</text></g><rect fill="#EEEEEE" height="3" style="stroke:#EEEEEE;stroke-width:1;" width="855.5068" x="0" y="436.2227"/><line style="stroke:#000000;stroke-width:1;" x1="0" x2="855.5068" y1="436.2227" y2="436.2227"/><line style="stroke:#000000;stroke-width:1;" x1="0" x2="855.5068" y1="439.2227" y2="439.2227"/><rect fill="#EEEEEE" height="23.1328" style="stroke:#000000;stroke-width:2;" width="267.2271" x="294.1399" y="425.6563"/><text fill="#000000" font-family="sans-serif" font-size="13" font-weight="bold" lengthAdjust="spacing" textLength="248.7012" x="300.1399" y="441.7231">&#1055;&#1088;&#1086;&#1089;&#1084;&#1086;&#1090;&#1088; &#1076;&#1077;&#1090;&#1072;&#1083;&#1077;&#1081; &#1087;&#1086;&#1083;&#1100;&#1079;&#1086;&#1074;&#1072;&#1090;&#1077;&#1083;&#1103;</text><g class="message" data-participant-1="Admin" data-participant-2="TargetUser"><polygon fill="#181818" points="449.375,475.9219,459.375,479.9219,449.375,483.9219,453.375,479.9219" style="stroke:#181818;stroke-width:1;"/><line style="stroke:#181818;stroke-width:1;" x1="81.0474" x2="455.375" y1="479.9219" y2="479.9219"/><text fill="#000000" font-family="sans-serif" font-size="13" lengthAdjust="spacing" textLength="146.6309" x="88.0474" y="474.856">getUserDetails(userId)</text></g><g class="message" data-participant-1="TargetUser" data-participant-2="State"><polygon fill="#181818" points="673.5845,505.0547,683.5845,509.0547,673.5845,513.0547,677.5845,509.0547" style="stroke:#181818;stroke-width:1;"/><line style="stroke:#181818;stroke-width:1;" x1="471.375" x2="679.5845" y1="509.0547" y2="509.0547"/><text fill="#000000" font-family="sans-serif" font-size="13" lengthAdjust="spacing" textLength="72.9155" x="478.375" y="503.9888">getStatus()</text></g><g class="message" data-participant-1="State" data-participant-2="TargetUser"><polygon fill="#181818" points="482.375,534.1875,472.375,538.1875,482.375,542.1875,478.375,538.1875" style="stroke:#181818;stroke-width:1;"/><line style="stroke:#181818;stroke-width:1;stroke-dasharray:2,2;" x1="476.375" x2="689.5845" y1="538.1875" y2="538.1875"/><text fill="#000000" font-family="sans-serif" font-size="13" lengthAdjust="spacing" textLength="52.3999" x="488.375" y="533.1216">"Active"</text></g><g class="message" data-participant-1="TargetUser" data-participant-2="Admin"><polygon fill="#181818" points="92.0474,563.3203,82.0474,567.3203,92.0474,571.3203,88.0474,567.3203" style="stroke:#181818;stroke-width:1;"/><line style="stroke:#181818;stroke-width:1;stroke-dasharray:2,2;" x1="86.0474" x2="465.375" y1="567.3203" y2="567.3203"/><text fill="#000000" font-family="sans-serif" font-size="13" lengthAdjust="spacing" textLength="174.4019" x="98.0474" y="562.2544">userDetails + currentState</text></g><rect fill="#EEEEEE" height="3" style="stroke:#EEEEEE;stroke-width:1;" width="855.5068" x="0" y="595.8867"/><line style="stroke:#000000;stroke-width:1;" x1="0" x2="855.5068" y1="595.8867" y2="595.8867"/><line style="stroke:#000000;stroke-width:1;" x1="0" x2="855.5068" y1="598.8867" y2="598.8867"/><rect fill="#EEEEEE" height="23.1328" style="stroke:#000000;stroke-width:2;" width="337.9653" x="258.7708" y="585.3203"/><text fill="#000000" font-family="sans-serif" font-size="13" font-weight="bold" lengthAdjust="spacing" textLength="319.4395" x="264.7708" y="601.3872">&#1042;&#1099;&#1087;&#1086;&#1083;&#1085;&#1077;&#1085;&#1080;&#1077; &#1076;&#1077;&#1081;&#1089;&#1090;&#1074;&#1080;&#1103; &#1085;&#1072;&#1076; &#1087;&#1086;&#1083;&#1100;&#1079;&#1086;&#1074;&#1072;&#1090;&#1077;&#1083;&#1077;&#1084;</text><path d="M10,625.4531 L74.4429,625.4531 L74.4429,632.5859 L64.4429,642.5859 L10,642.5859 L10,625.4531" fill="#EEEEEE" style="stroke:#000000;stroke-width:1.5;"/><rect fill="none" height="571.1328" style="stroke:#000000;stroke-width:1.5;" width="720.5361" x="10" y="625.4531"/><text fill="#000000" font-family="sans-serif" font-size="13" font-weight="bold" lengthAdjust="spacing" textLength="19.4429" x="25" y="638.52">alt</text><text fill="#000000" font-family="sans-serif" font-size="11" font-weight="bold" lengthAdjust="spacing" textLength="177.7939" x="89.4429" y="637.6636">[&#1041;&#1083;&#1086;&#1082;&#1080;&#1088;&#1086;&#1074;&#1082;&#1072; &#1087;&#1086;&#1083;&#1100;&#1079;&#1086;&#1074;&#1072;&#1090;&#1077;&#1083;&#1103;]</text><g class="message" data-participant-1="Admin" data-participant-2="TargetUser"><polygon fill="#181818" points="449.375,659.7188,459.375,663.7188,449.375,667.7188,453.375,663.7188" style="stroke:#181818;stroke-width:1;"/><line style="stroke:#181818;stroke-width:1;" x1="81.0474" x2="455.375" y1="663.7188" y2="663.7188"/><text fill="#000000" font-family="sans-serif" font-size="13" lengthAdjust="spacing" textLength="173.437" x="88.0474" y="658.6528">changeState(UserBlocked)</text></g><g class="message" data-participant-1="TargetUser" data-participant-2="State"><polygon fill="#181818" points="673.5845,688.8516,683.5845,692.8516,673.5845,696.8516,677.5845,692.8516" style="stroke:#181818;stroke-width:1;"/><line style="stroke:#181818;stroke-width:1;" x1="471.375" x2="679.5845" y1="692.8516" y2="692.8516"/><text fill="#000000" font-family="sans-serif" font-size="13" lengthAdjust="spacing" textLength="195.2095" x="478.375" y="687.7856">canTransitionTo(UserBlocked)</text></g><g class="message" data-participant-1="State" data-participant-2="TargetUser"><polygon fill="#181818" points="482.375,717.9844,472.375,721.9844,482.375,725.9844,478.375,721.9844" style="stroke:#181818;stroke-width:1;"/><line style="stroke:#181818;stroke-width:1;stroke-dasharray:2,2;" x1="476.375" x2="689.5845" y1="721.9844" y2="721.9844"/><text fill="#000000" font-family="sans-serif" font-size="13" lengthAdjust="spacing" textLength="26.6792" x="488.375" y="716.9185">true</text></g><g class="message" data-participant-1="TargetUser" data-participant-2="State"><polygon fill="#181818" points="673.5845,747.1172,683.5845,751.1172,673.5845,755.1172,677.5845,751.1172" style="stroke:#181818;stroke-width:1;"/><line style="stroke:#181818;stroke-width:1;" x1="471.375" x2="679.5845" y1="751.1172" y2="751.1172"/><text fill="#000000" font-family="sans-serif" font-size="13" lengthAdjust="spacing" textLength="142.6318" x="478.375" y="746.0513">&#171;create&#187; UserBlocked</text></g><g class="message" data-participant-1="State" data-participant-2="TargetUser"><polygon fill="#181818" points="482.375,776.25,472.375,780.25,482.375,784.25,478.375,780.25" style="stroke:#181818;stroke-width:1;"/><line style="stroke:#181818;stroke-width:1;stroke-dasharray:2,2;" x1="476.375" x2="689.5845" y1="780.25" y2="780.25"/><text fill="#000000" font-family="sans-serif" font-size="13" lengthAdjust="spacing" textLength="61.2803" x="488.375" y="775.1841">newState</text></g><g class="message" data-participant-1="TargetUser" data-participant-2="Admin"><polygon fill="#181818" points="92.0474,805.3828,82.0474,809.3828,92.0474,813.3828,88.0474,809.3828" style="stroke:#181818;stroke-width:1;"/><line style="stroke:#181818;stroke-width:1;stroke-dasharray:2,2;" x1="86.0474" x2="465.375" y1="809.3828" y2="809.3828"/><text fill="#000000" font-family="sans-serif" font-size="13" lengthAdjust="spacing" textLength="90.9556" x="98.0474" y="804.3169">stateChanged</text></g><line style="stroke:#000000;stroke-width:1;stroke-dasharray:2,2;" x1="10" x2="730.5361" y1="818.3828" y2="818.3828"/><text fill="#000000" font-family="sans-serif" font-size="11" font-weight="bold" lengthAdjust="spacing" textLength="198.9668" x="15" y="828.5933">[&#1056;&#1072;&#1079;&#1073;&#1083;&#1086;&#1082;&#1080;&#1088;&#1086;&#1074;&#1082;&#1072; &#1087;&#1086;&#1083;&#1100;&#1079;&#1086;&#1074;&#1072;&#1090;&#1077;&#1083;&#1103;]</text><g class="message" data-participant-1="Admin" data-participant-2="TargetUser"><polygon fill="#181818" points="449.375,849.3203,459.375,853.3203,449.375,857.3203,453.375,853.3203" style="stroke:#181818;stroke-width:1;"/><line style="stroke:#181818;stroke-width:1;" x1="81.0474" x2="455.375" y1="853.3203" y2="853.3203"/><text fill="#000000" font-family="sans-serif" font-size="13" lengthAdjust="spacing" textLength="162.4683" x="88.0474" y="848.2544">changeState(UserActive)</text></g><g class="message" data-participant-1="TargetUser" data-participant-2="State"><polygon fill="#181818" points="673.5845,878.4531,683.5845,882.4531,673.5845,886.4531,677.5845,882.4531" style="stroke:#181818;stroke-width:1;"/><line style="stroke:#181818;stroke-width:1;" x1="471.375" x2="679.5845" y1="882.4531" y2="882.4531"/><text fill="#000000" font-family="sans-serif" font-size="13" lengthAdjust="spacing" textLength="184.2407" x="478.375" y="877.3872">canTransitionTo(UserActive)</text></g><g class="message" data-participant-1="State" data-participant-2="TargetUser"><polygon fill="#181818" points="482.375,907.5859,472.375,911.5859,482.375,915.5859,478.375,911.5859" style="stroke:#181818;stroke-width:1;"/><line style="stroke:#181818;stroke-width:1;stroke-dasharray:2,2;" x1="476.375" x2="689.5845" y1="911.5859" y2="911.5859"/><text fill="#000000" font-family="sans-serif" font-size="13" lengthAdjust="spacing" textLength="26.6792" x="488.375" y="906.52">true</text></g><g class="message" data-participant-1="TargetUser" data-participant-2="State"><polygon fill="#181818" points="673.5845,936.7188,683.5845,940.7188,673.5845,944.7188,677.5845,940.7188" style="stroke:#181818;stroke-width:1;"/><line style="stroke:#181818;stroke-width:1;" x1="471.375" x2="679.5845" y1="940.7188" y2="940.7188"/><text fill="#000000" font-family="sans-serif" font-size="13" lengthAdjust="spacing" textLength="131.6631" x="478.375" y="935.6528">&#171;create&#187; UserActive</text></g><g class="message" data-participant-1="State" data-participant-2="TargetUser"><polygon fill="#181818" points="482.375,965.8516,472.375,969.8516,482.375,973.8516,478.375,969.8516" style="stroke:#181818;stroke-width:1;"/><line style="stroke:#181818;stroke-width:1;stroke-dasharray:2,2;" x1="476.375" x2="689.5845" y1="969.8516" y2="969.8516"/><text fill="#000000" font-family="sans-serif" font-size="13" lengthAdjust="spacing" textLength="61.2803" x="488.375" y="964.7856">newState</text></g><g class="message" data-participant-1="TargetUser" data-participant-2="Admin"><polygon fill="#181818" points="92.0474,994.9844,82.0474,998.9844,92.0474,1002.9844,88.0474,998.9844" style="stroke:#181818;stroke-width:1;"/><line style="stroke:#181818;stroke-width:1;stroke-dasharray:2,2;" x1="86.0474" x2="465.375" y1="998.9844" y2="998.9844"/><text fill="#000000" font-family="sans-serif" font-size="13" lengthAdjust="spacing" textLength="90.9556" x="98.0474" y="993.9185">stateChanged</text></g><line style="stroke:#000000;stroke-width:1;stroke-dasharray:2,2;" x1="10" x2="730.5361" y1="1007.9844" y2="1007.9844"/><text fill="#000000" font-family="sans-serif" font-size="11" font-weight="bold" lengthAdjust="spacing" textLength="164.4146" x="15" y="1018.1948">[&#1059;&#1076;&#1072;&#1083;&#1077;&#1085;&#1080;&#1077; &#1087;&#1086;&#1083;&#1100;&#1079;&#1086;&#1074;&#1072;&#1090;&#1077;&#1083;&#1103;]</text><g class="message" data-participant-1="Admin" data-participant-2="TargetUser"><polygon fill="#181818" points="449.375,1038.9219,459.375,1042.9219,449.375,1046.9219,453.375,1042.9219" style="stroke:#181818;stroke-width:1;"/><line style="stroke:#181818;stroke-width:1;" x1="81.0474" x2="455.375" y1="1042.9219" y2="1042.9219"/><text fill="#000000" font-family="sans-serif" font-size="13" lengthAdjust="spacing" textLength="172.9927" x="88.0474" y="1037.856">changeState(UserDeleted)</text></g><g class="message" data-participant-1="TargetUser" data-participant-2="State"><polygon fill="#181818" points="673.5845,1068.0547,683.5845,1072.0547,673.5845,1076.0547,677.5845,1072.0547" style="stroke:#181818;stroke-width:1;"/><line style="stroke:#181818;stroke-width:1;" x1="471.375" x2="679.5845" y1="1072.0547" y2="1072.0547"/><text fill="#000000" font-family="sans-serif" font-size="13" lengthAdjust="spacing" textLength="194.7651" x="478.375" y="1066.9888">canTransitionTo(UserDeleted)</text></g><g class="message" data-participant-1="State" data-participant-2="TargetUser"><polygon fill="#181818" points="482.375,1097.1875,472.375,1101.1875,482.375,1105.1875,478.375,1101.1875" style="stroke:#181818;stroke-width:1;"/><line style="stroke:#181818;stroke-width:1;stroke-dasharray:2,2;" x1="476.375" x2="689.5845" y1="1101.1875" y2="1101.1875"/><text fill="#000000" font-family="sans-serif" font-size="13" lengthAdjust="spacing" textLength="26.6792" x="488.375" y="1096.1216">true</text></g><g class="message" data-participant-1="TargetUser" data-participant-2="State"><polygon fill="#181818" points="673.5845,1126.3203,683.5845,1130.3203,673.5845,1134.3203,677.5845,1130.3203" style="stroke:#181818;stroke-width:1;"/><line style="stroke:#181818;stroke-width:1;" x1="471.375" x2="679.5845" y1="1130.3203" y2="1130.3203"/><text fill="#000000" font-family="sans-serif" font-size="13" lengthAdjust="spacing" textLength="142.1875" x="478.375" y="1125.2544">&#171;create&#187; UserDeleted</text></g><g class="message" data-participant-1="State" data-participant-2="TargetUser"><polygon fill="#181818" points="482.375,1155.4531,472.375,1159.4531,482.375,1163.4531,478.375,1159.4531" style="stroke:#181818;stroke-width:1;"/><line style="stroke:#181818;stroke-width:1;stroke-dasharray:2,2;" x1="476.375" x2="689.5845" y1="1159.4531" y2="1159.4531"/><text fill="#000000" font-family="sans-serif" font-size="13" lengthAdjust="spacing" textLength="61.2803" x="488.375" y="1154.3872">newState</text></g><g class="message" data-participant-1="TargetUser" data-participant-2="Admin"><polygon fill="#181818" points="92.0474,1184.5859,82.0474,1188.5859,92.0474,1192.5859,88.0474,1188.5859" style="stroke:#181818;stroke-width:1;"/><line style="stroke:#181818;stroke-width:1;stroke-dasharray:2,2;" x1="86.0474" x2="465.375" y1="1188.5859" y2="1188.5859"/><text fill="#000000" font-family="sans-serif" font-size="13" lengthAdjust="spacing" textLength="90.9556" x="98.0474" y="1183.52">stateChanged</text></g><rect fill="#EEEEEE" height="3" style="stroke:#EEEEEE;stroke-width:1;" width="855.5068" x="0" y="1224.1523"/><line style="stroke:#000000;stroke-width:1;" x1="0" x2="855.5068" y1="1224.1523" y2="1224.1523"/><line style="stroke:#000000;stroke-width:1;" x1="0" x2="855.5068" y1="1227.1523" y2="1227.1523"/><rect fill="#EEEEEE" height="23.1328" style="stroke:#000000;stroke-width:2;" width="190.1729" x="332.667" y="1213.5859"/><text fill="#000000" font-family="sans-serif" font-size="13" font-weight="bold" lengthAdjust="spacing" textLength="171.647" x="338.667" y="1229.6528">&#1051;&#1086;&#1075;&#1080;&#1088;&#1086;&#1074;&#1072;&#1085;&#1080;&#1077; &#1076;&#1077;&#1081;&#1089;&#1090;&#1074;&#1080;&#1103;</text><g class="message" data-participant-1="Admin" data-participant-2="Log"><polygon fill="#181818" points="773.5215,1263.8516,783.5215,1267.8516,773.5215,1271.8516,777.5215,1267.8516" style="stroke:#181818;stroke-width:1;"/><line style="stroke:#181818;stroke-width:1;" x1="81.0474" x2="779.5215" y1="1267.8516" y2="1267.8516"/><text fill="#000000" font-family="sans-serif" font-size="13" lengthAdjust="spacing" textLength="409.1318" x="88.0474" y="1262.7856">&#171;create&#187; UserActionLog(action, reason, adminId, targetUserId)</text></g><g class="message" data-participant-1="Log" data-participant-2="Admin"><polygon fill="#181818" points="92.0474,1292.9844,82.0474,1296.9844,92.0474,1300.9844,88.0474,1296.9844" style="stroke:#181818;stroke-width:1;"/><line style="stroke:#181818;stroke-width:1;stroke-dasharray:2,2;" x1="86.0474" x2="789.5215" y1="1296.9844" y2="1296.9844"/><text fill="#000000" font-family="sans-serif" font-size="13" lengthAdjust="spacing" textLength="71.5508" x="98.0474" y="1291.9185">logCreated</text></g><rect fill="#EEEEEE" height="3" style="stroke:#EEEEEE;stroke-width:1;" width="855.5068" x="0" y="1325.5508"/><line style="stroke:#000000;stroke-width:1;" x1="0" x2="855.5068" y1="1325.5508" y2="1325.5508"/><line style="stroke:#000000;stroke-width:1;" x1="0" x2="855.5068" y1="1328.5508" y2="1328.5508"/><rect fill="#EEEEEE" height="23.1328" style="stroke:#000000;stroke-width:2;" width="228.7793" x="313.3638" y="1314.9844"/><text fill="#000000" font-family="sans-serif" font-size="13" font-weight="bold" lengthAdjust="spacing" textLength="210.2534" x="319.3638" y="1331.0513">&#1059;&#1074;&#1077;&#1076;&#1086;&#1084;&#1083;&#1077;&#1085;&#1080;&#1077; &#1087;&#1086;&#1083;&#1100;&#1079;&#1086;&#1074;&#1072;&#1090;&#1077;&#1083;&#1103;</text><g class="message" data-participant-1="TargetUser" data-participant-2="TargetUser"><line style="stroke:#181818;stroke-width:1;" x1="466.375" x2="513.375" y1="1364.25" y2="1364.25"/><line style="stroke:#181818;stroke-width:1;" x1="513.375" x2="513.375" y1="1364.25" y2="1377.25"/><line style="stroke:#181818;stroke-width:1;" x1="472.375" x2="513.375" y1="1377.25" y2="1377.25"/><polygon fill="#181818" points="482.375,1373.25,472.375,1377.25,482.375,1381.25,478.375,1377.25" style="stroke:#181818;stroke-width:1;"/><text fill="#000000" font-family="sans-serif" font-size="13" lengthAdjust="spacing" textLength="205.7148" x="478.375" y="1359.1841">sendNotification(statusChange)</text></g><g class="message" data-participant-1="TargetUser" data-participant-2="Admin"><polygon fill="#181818" points="92.0474,1407.3828,82.0474,1411.3828,92.0474,1415.3828,88.0474,1411.3828" style="stroke:#181818;stroke-width:1;"/><line style="stroke:#181818;stroke-width:1;stroke-dasharray:2,2;" x1="86.0474" x2="465.375" y1="1411.3828" y2="1411.3828"/><text fill="#000000" font-family="sans-serif" font-size="13" lengthAdjust="spacing" textLength="79.1807" x="98.0474" y="1406.3169">userNotified</text></g><!--SRC=[pLRDJjj04BxxALOvEIgyG9H4Iiab4kL2UkjbPM_3giP6knkuqbPg3wr4M_NM0vLuWJGGaPOGNc7zHfsPXTXExG0IHIHAl5xFppVVD-jT8qqacFrkftPaJzD3-9_1TyJibPsdR-s5dTWpExTZEqhVmVWY_MmlyGdSJHlCdjWhSXgJvIM4cP0h6PuN78yWxjJpU60InMhs2yI52VJ1Q1W53EVfOOrnpJhXheozFQwC3EGUZmshDLvgeLx5FiT7zSmAfyij3LS3OPnfdyObjhrjmuqW6ngLXEe4HYRnPZ8WAxXwNgl5e8AnGmnLd0Fw3r394GCoAWe3LbijpoFGRBsTeMSD5YK36VjYbyjeZUrnhGyI5TQHBBaFe7ALPbvB8VPv94EmtL0Y5B6HFD9-lTfSQhe3apY114eETWm8UWmuKRK9NFy0Ohgzi5DIbGt1jnVcWzv4lQbXUnW4GclcgmGQgyKwtHUzhReNYf9IYCLZQfRtwST5_q3RNI5tbB-ycU3tkqXcfYyWWL4dYl06ALXaplL0pZnVmgRKfecpxJpYd9-3ZAG0lXdyWxuC19y0hj4rhgh-NmqOHrrXe06qxsY-7NdRjQmBWCDXeLxNpyvaVJbb3RjwNzJoXJg72cw66K3sZ0L3fQ3BdCSAhhwbdnmV8ExY1N66FD4xPEpMp2MkccgjPqGTZmopNs5Y3fqnlUxJwXv9Zpm6dtB2WnqU3mIXzt7gUPG4RmHGZYvbnU1yEVK1Z_kAnrhYIwAVh0ZdoCAf2asC6hhd_sXIdRxP39I0ORlDSfdlcJWM1vdDhSbpJQ7HO8F839UTbzZpHAHXg_a9Kf_RN_z7HjVJ3wLYQRJ74D4bVheQdi0A7jrXnx-7SbqH2VDm2x0yt6DeTvtvYOaduj2zZt-0GgUBPJUgUYCNjYeuyPJtA1sAV4wZDGPFDLxfWDOBrvXPv2ziPdY0mf1BPuSDYXxcDvF5KUi4JoHq49tTeUq8VL6i0jaQsDXAZ7mj0uxGVKrRfsFnNkS5t1DTf2BmpFml]--></g></svg>